<svg width="64" height="64" viewBox="0 0 64 64" fill="none" xmlns="http://www.w3.org/2000/svg">
<path d="M42.2531 16.1759L17.5043 40.9246M42.2531 16.1759L46.4957 11.9332C47.2767 11.1522 48.5431 11.1522 49.3241 11.9332L53.5668 16.1759C54.3478 16.9569 54.3478 18.2233 53.5668 19.0043L49.3241 23.2469M42.2531 16.1759L44.0208 17.9436M49.3241 23.2469L24.5754 47.9957M49.3241 23.2469L47.5564 21.4792M24.5754 47.9957L18.565 50.4706M24.5754 47.9957L22.8076 46.2279M17.5043 40.9246L15.0294 46.935M17.5043 40.9246L19.2721 42.6924M18.565 50.4706L12.5546 52.9454L15.0294 46.935M18.565 50.4706V50.4706C18.3583 48.6103 16.8897 47.1417 15.0294 46.935V46.935M44.0208 17.9436L45.7886 19.7114L47.5564 21.4792M44.0208 17.9436L19.2721 42.6924M47.5564 21.4792L22.8076 46.2279M22.8076 46.2279L19.2721 42.6924" stroke="black" stroke-width="2"/>
</svg>
